<svg width="45" height="23" viewBox="0 0 45 23" fill="none" xmlns="http://www.w3.org/2000/svg">
<path d="M7.4375 8.75781C8.85352 8.75781 10.0889 9.00684 11.1436 9.50488C12.208 9.99316 13.0332 10.7109 13.6191 11.6582C14.2148 12.6055 14.5127 13.7578 14.5127 15.1152C14.5127 16.5996 14.1953 17.8789 13.5605 18.9531C12.9258 20.0273 12.0029 20.8525 10.792 21.4287C9.58105 22.0049 8.11621 22.293 6.39746 22.293C5.28418 22.293 4.24414 22.1953 3.27734 22C2.31055 21.8047 1.49023 21.5117 0.816406 21.1211V18.4111C1.53906 18.8311 2.4082 19.1729 3.42383 19.4365C4.44922 19.6904 5.43555 19.8174 6.38281 19.8174C7.41797 19.8174 8.31641 19.6562 9.07812 19.334C9.84961 19.0117 10.4453 18.5234 10.8652 17.8691C11.2852 17.2148 11.4951 16.3848 11.4951 15.3789C11.4951 14.0508 11.0801 13.0254 10.25 12.3027C9.41992 11.5801 8.11621 11.2188 6.33887 11.2188C5.74316 11.2188 5.09863 11.2725 4.40527 11.3799C3.71191 11.4775 3.14062 11.5801 2.69141 11.6875L1.31445 10.8525L2.13477 0.583984H13.0332V3.20605H4.68359L4.18555 9.10938C4.54688 9.03125 4.99609 8.95312 5.5332 8.875C6.07031 8.79688 6.70508 8.75781 7.4375 8.75781ZM28.4824 7.72266L23.1699 22H21.5684L26.8906 7.72266H28.4824ZM39.4004 13.2695C40.3704 13.2695 41.2135 13.4355 41.9297 13.7676C42.6458 14.0931 43.1992 14.5684 43.5898 15.1934C43.987 15.8184 44.1855 16.5768 44.1855 17.4688C44.1855 18.4453 43.974 19.2884 43.5508 19.998C43.1276 20.7012 42.5189 21.2448 41.7246 21.6289C40.9303 22.0065 39.9798 22.1953 38.873 22.1953C38.1309 22.1953 37.4408 22.1302 36.8027 22C36.1647 21.8698 35.6276 21.6745 35.1914 21.4141V19.8711C35.6667 20.1576 36.2428 20.3854 36.9199 20.5547C37.597 20.724 38.2546 20.8086 38.8926 20.8086C39.6152 20.8086 40.2467 20.6947 40.7871 20.4668C41.334 20.2324 41.7572 19.8809 42.0566 19.4121C42.3626 18.9368 42.5156 18.3411 42.5156 17.625C42.5156 16.6745 42.2227 15.9421 41.6367 15.4277C41.0573 14.9069 40.1393 14.6465 38.8828 14.6465C38.4792 14.6465 38.0365 14.679 37.5547 14.7441C37.0729 14.8092 36.6758 14.8809 36.3633 14.959L35.543 14.4219L36.0898 7.72266H43.1895V9.20703H37.4766L37.1152 13.5137C37.3626 13.4616 37.6816 13.4095 38.0723 13.3574C38.4629 13.2988 38.9056 13.2695 39.4004 13.2695Z" fill="#111111"/>
</svg>
