<svg xmlns="http://www.w3.org/2000/svg">
<symbol id="next" width="24" height="24" viewBox="0 0 24 24" fill="none">
  <path d="M14.2959 4.4541L21.0459 11.2041C21.1508 11.3086 21.234 11.4328 21.2908 11.5696C21.3476 11.7063 21.3768 11.8529 21.3768 12.001C21.3768 12.149 21.3476 12.2957 21.2908 12.4324C21.234 12.5691 21.1508 12.6933 21.0459 12.7979L14.2959 19.5479C14.0846 19.7592 13.7979 19.8779 13.4991 19.8779C13.2002 19.8779 12.9135 19.7592 12.7022 19.5479C12.4908 19.3365 12.3721 19.0499 12.3721 18.751C12.3721 18.4521 12.4908 18.1654 12.7022 17.9541L17.5313 13.125L3.75 13.125C3.45163 13.125 3.16548 13.0065 2.9545 12.7955C2.74353 12.5846 2.625 12.2984 2.625 12C2.625 11.7017 2.74353 11.4155 2.95451 11.2045C3.16548 10.9936 3.45163 10.875 3.75 10.875L17.5313 10.875L12.7013 6.04598C12.4899 5.83463 12.3712 5.54799 12.3712 5.2491C12.3712 4.95022 12.4899 4.66357 12.7013 4.45223C12.9126 4.24088 13.1992 4.12215 13.4981 4.12215C13.797 4.12215 14.0837 4.24088 14.295 4.45223L14.2959 4.4541Z" fill="black" />
<symbol/>
<symbol id="prev" width="24" height="24" viewBox="0 0 24 24" fill="none">
  <path d="M9.70406 4.4541L2.95406 11.2041C2.84918 11.3086 2.76597 11.4328 2.70919 11.5696C2.6524 11.7063 2.62317 11.8529 2.62317 12.001C2.62317 12.149 2.6524 12.2957 2.70919 12.4324C2.76597 12.5691 2.84918 12.6933 2.95406 12.7979L9.70406 19.5479C9.91541 19.7592 10.2021 19.8779 10.5009 19.8779C10.7998 19.8779 11.0865 19.7592 11.2978 19.5479C11.5092 19.3365 11.6279 19.0499 11.6279 18.751C11.6279 18.4521 11.5092 18.1654 11.2978 17.9541L6.46875 13.125L20.25 13.125C20.5484 13.125 20.8345 13.0065 21.0455 12.7955C21.2565 12.5846 21.375 12.2984 21.375 12C21.375 11.7017 21.2565 11.4155 21.0455 11.2045C20.8345 10.9936 20.5484 10.875 20.25 10.875L6.46875 10.875L11.2988 6.04598C11.5101 5.83463 11.6288 5.54799 11.6288 5.2491C11.6288 4.95022 11.5101 4.66357 11.2988 4.45223C11.0874 4.24088 10.8008 4.12215 10.5019 4.12215C10.203 4.12215 9.91634 4.24088 9.705 4.45223L9.70406 4.4541Z" fill="black" />
<symbol/>
<symbol id="down-arrow" width="16" height="16" viewBox="0 0 16 16" fill="none">
  <path d="M13.5306 6.53063L8.5306 11.5306C8.46092 11.6005 8.37813 11.656 8.28696 11.6939C8.1958 11.7317 8.09806 11.7512 7.99935 11.7512C7.90064 11.7512 7.8029 11.7317 7.71173 11.6939C7.62057 11.656 7.53778 11.6005 7.4681 11.5306L2.4681 6.53063C2.3272 6.38973 2.24805 6.19864 2.24805 5.99938C2.24805 5.80012 2.3272 5.60902 2.4681 5.46813C2.60899 5.32723 2.80009 5.24808 2.99935 5.24808C3.19861 5.24808 3.3897 5.32723 3.5306 5.46813L7.99997 9.9375L12.4693 5.4675C12.6102 5.32661 12.8013 5.24745 13.0006 5.24745C13.1999 5.24745 13.391 5.32661 13.5318 5.4675C13.6727 5.6084 13.7519 5.7995 13.7519 5.99875C13.7519 6.19801 13.6727 6.38911 13.5318 6.53L13.5306 6.53063Z" fill="black" />
</symbol>
</svg>












